<svg id="svg" xmlns="http://www.w3.org/2000/svg" xmlns:xlink="http://www.w3.org/1999/xlink" width="400" height="317.1696149843913" viewBox="0, 0, 400,317.1696149843913"><g id="svgg"><path id="path0" d="M-0.000 158.604 L -0.000 317.208 200.000 317.208 L 400.000 317.208 400.000 300.680 L 400.000 284.152 399.204 283.525 C 398.336 282.843,398.415 282.316,399.384 282.316 C 399.993 282.316,400.000 280.673,400.000 141.158 L 400.000 0.000 200.000 0.000 L 0.000 0.000 -0.000 158.604 M17.119 10.038 C 18.084 10.231,18.130 10.303,17.971 11.386 C 17.234 16.412,17.334 16.643,21.628 19.805 C 23.949 21.514,32.785 30.645,37.456 36.162 C 41.402 40.822,49.583 49.981,50.915 51.229 C 51.659 51.927,53.695 54.211,55.440 56.305 C 57.184 58.398,59.484 61.110,60.550 62.331 C 63.392 65.588,63.225 66.604,59.516 68.626 C 58.665 69.089,57.856 69.469,57.718 69.469 C 57.125 69.469,53.598 65.860,50.743 62.334 C 49.047 60.239,46.679 57.443,45.480 56.121 C 44.280 54.799,40.801 50.876,37.748 47.403 C 34.695 43.931,31.197 40.010,29.976 38.691 C 25.827 34.211,20.398 27.766,18.046 24.530 C 12.830 17.353,12.065 16.125,11.386 13.844 L 10.715 11.593 11.769 10.713 C 12.871 9.793,14.726 9.559,17.119 10.038 M65.667 69.091 C 67.111 70.261,66.185 72.641,64.285 72.641 C 62.354 72.641,61.169 70.436,62.381 69.097 C 63.057 68.350,64.747 68.347,65.667 69.091 M73.520 76.741 C 74.420 77.764,75.502 79.381,75.924 80.335 C 76.413 81.440,77.942 83.484,80.138 85.966 C 82.033 88.109,85.633 92.233,88.136 95.130 C 90.639 98.026,93.861 101.610,95.294 103.093 C 96.728 104.576,98.534 106.639,99.307 107.678 C 100.081 108.717,102.766 111.714,105.275 114.339 C 110.838 120.159,116.026 126.342,117.211 128.563 C 118.493 130.966,119.144 131.561,121.973 132.912 C 125.363 134.532,132.419 141.872,138.780 150.396 C 144.854 158.537,147.199 159.700,150.858 156.384 C 152.013 155.337,153.131 154.481,153.342 154.481 C 154.217 154.481,157.292 150.389,157.510 148.935 C 157.839 146.737,159.556 146.261,159.556 148.368 C 159.556 149.477,160.831 151.267,161.693 151.366 C 163.331 151.555,162.770 152.431,161.079 152.325 C 159.766 152.243,159.446 152.360,158.383 153.313 C 157.720 153.908,156.738 154.618,156.202 154.892 C 155.666 155.166,154.453 156.123,153.506 157.019 C 152.559 157.915,151.387 158.796,150.902 158.977 C 148.438 159.900,148.679 162.077,151.505 164.423 C 152.659 165.381,154.877 167.783,156.433 169.760 C 157.988 171.737,160.319 174.568,161.613 176.051 C 162.907 177.534,165.343 180.389,167.026 182.395 C 168.709 184.401,172.041 188.113,174.430 190.642 C 176.819 193.172,179.868 196.669,181.205 198.414 C 183.565 201.493,188.490 207.285,197.304 217.345 C 210.364 232.251,214.104 236.109,218.457 239.164 C 220.309 240.463,225.018 245.643,231.222 253.206 C 233.799 256.348,234.325 256.604,237.510 256.274 C 240.850 255.929,240.919 255.783,240.527 249.907 C 240.349 247.232,240.177 242.260,240.146 238.858 L 240.089 232.672 241.076 231.129 C 242.241 229.307,242.208 228.710,240.920 228.295 C 237.880 227.315,237.536 225.048,240.142 223.175 C 242.368 221.577,242.358 220.395,240.099 217.750 C 235.068 211.858,235.159 212.118,234.792 202.687 L 234.576 197.127 233.545 195.522 C 231.765 192.752,232.355 190.779,235.168 190.092 C 237.834 189.440,283.534 189.847,284.452 190.530 C 285.845 191.567,286.035 192.556,285.151 194.177 C 284.352 195.644,284.438 194.775,283.301 212.892 C 283.141 215.446,282.860 217.816,282.677 218.158 C 282.494 218.500,282.129 219.810,281.866 221.069 C 281.604 222.328,281.116 223.812,280.782 224.367 C 280.448 224.922,279.353 227.446,278.349 229.976 C 274.553 239.539,273.585 240.984,269.637 242.977 C 267.758 243.926,267.724 243.966,267.724 245.267 C 267.724 246.443,267.550 246.754,266.176 248.038 C 265.324 248.834,264.553 249.770,264.461 250.119 C 264.369 250.468,264.207 251.145,264.100 251.624 C 263.965 252.229,263.570 252.635,262.802 252.955 C 262.195 253.209,261.531 253.784,261.326 254.234 C 261.109 254.711,260.613 255.116,260.136 255.207 C 259.686 255.293,258.747 255.494,258.049 255.655 C 256.451 256.022,255.334 255.437,253.814 253.435 C 251.494 250.380,249.573 251.670,251.191 255.194 C 252.112 257.198,252.882 257.705,255.029 257.720 C 256.050 257.726,256.941 257.803,257.009 257.891 C 257.076 257.978,257.387 258.458,257.701 258.958 C 258.412 260.093,259.811 259.979,261.561 258.645 C 262.956 257.581,263.666 257.864,263.947 259.594 C 264.274 261.600,265.338 261.587,265.663 259.573 C 266.021 257.352,266.136 256.986,266.637 256.485 C 266.911 256.211,267.567 255.987,268.095 255.987 C 268.637 255.987,269.837 255.506,270.848 254.883 C 273.459 253.275,276.443 252.185,279.070 251.882 C 281.478 251.603,282.316 251.196,282.316 250.302 C 282.316 248.920,283.471 248.687,284.795 249.802 C 285.993 250.810,287.079 250.810,288.025 249.802 C 289.084 248.675,289.867 248.783,290.431 250.133 C 291.011 251.522,291.597 251.773,292.650 251.084 C 293.413 250.583,293.514 250.585,294.313 251.109 C 295.334 251.779,297.595 251.840,299.397 251.245 C 300.478 250.888,300.846 250.891,301.728 251.263 C 302.935 251.772,312.238 251.732,313.606 251.212 C 314.706 250.794,314.456 249.945,313.003 249.167 C 311.545 248.387,311.500 248.060,312.847 248.047 C 314.315 248.033,314.672 247.648,316.538 244.070 C 322.233 233.151,331.540 225.862,342.826 223.481 C 344.303 223.170,344.565 222.467,343.936 220.500 C 343.422 218.894,343.426 218.844,344.095 218.175 C 345.219 217.051,346.237 217.753,346.740 220.001 C 347.370 222.816,347.481 222.857,355.012 223.119 C 357.048 223.190,358.895 223.359,359.115 223.495 C 359.335 223.631,360.595 224.061,361.914 224.450 C 368.720 226.456,375.487 230.432,380.117 235.142 C 383.164 238.242,383.085 238.218,385.091 236.668 C 387.632 234.705,389.113 236.022,386.756 238.148 C 384.783 239.929,384.622 240.837,386.002 242.416 C 388.947 245.786,391.368 250.632,392.768 255.952 C 393.300 257.978,394.081 260.920,394.502 262.490 C 395.430 265.946,395.407 270.683,394.437 275.918 L 393.831 279.196 394.546 280.439 C 395.111 281.421,395.163 281.681,394.793 281.681 C 393.814 281.681,392.706 283.195,391.649 285.978 C 387.478 296.954,379.775 304.721,369.633 308.177 C 365.858 309.464,365.258 310.333,365.866 313.640 C 366.230 315.615,365.573 315.345,364.970 313.271 C 364.352 311.144,362.899 309.747,361.641 310.070 C 351.445 312.692,335.654 307.436,326.750 298.456 C 323.427 295.105,322.846 294.833,321.419 295.956 C 320.444 296.722,319.253 296.780,318.982 296.074 C 318.779 295.546,318.918 295.303,320.452 293.486 C 321.621 292.102,321.600 291.989,319.633 289.096 C 318.698 287.722,317.639 286.027,317.279 285.329 C 316.918 284.631,316.434 283.809,316.202 283.503 C 315.005 281.918,283.396 282.158,281.790 283.764 C 280.559 284.995,280.823 285.708,283.379 288.064 C 285.487 290.006,285.766 290.407,286.271 292.212 C 287.876 297.953,288.028 297.967,297.942 293.279 C 302.154 291.288,303.560 291.087,305.635 292.182 C 310.260 294.621,311.370 298.920,308.621 303.738 C 306.947 306.670,306.698 306.251,307.674 302.144 C 309.573 294.146,306.002 290.445,299.436 293.608 C 298.132 294.235,295.638 295.391,293.894 296.175 C 290.273 297.803,289.724 298.208,289.451 299.455 C 289.158 300.789,290.361 304.427,291.866 306.755 C 292.585 307.868,293.601 309.854,294.123 311.169 C 295.263 314.039,295.772 314.671,296.941 314.671 C 297.429 314.671,298.536 314.823,299.402 315.009 C 300.779 315.304,301.137 315.264,302.260 314.691 C 304.207 313.698,304.525 314.180,303.065 315.915 C 302.165 316.985,300.918 317.179,298.818 316.576 C 298.061 316.359,297.172 316.374,295.962 316.624 C 291.900 317.463,289.245 315.920,291.218 313.866 C 292.776 312.243,291.797 310.160,288.818 308.761 C 286.621 307.728,286.261 307.793,284.189 309.596 C 282.062 311.446,281.784 311.496,280.583 310.242 C 279.117 308.712,275.135 308.512,274.376 309.930 C 273.517 311.536,275.448 313.529,277.420 313.072 C 278.106 312.913,279.258 312.779,279.980 312.775 C 280.701 312.771,281.700 312.554,282.200 312.294 C 284.746 310.966,288.660 312.690,288.660 315.138 C 288.660 315.376,288.838 315.634,289.056 315.712 C 289.274 315.791,288.599 315.966,287.556 316.102 C 285.053 316.427,277.138 316.077,276.250 315.602 C 275.727 315.322,275.142 315.315,273.937 315.572 C 270.231 316.365,251.572 315.852,246.276 314.812 C 244.498 314.463,243.146 312.421,240.908 306.703 C 235.943 294.021,233.930 291.615,230.325 294.058 C 228.735 295.136,228.056 295.206,225.997 294.507 L 224.533 294.010 222.123 295.379 C 217.628 297.934,215.283 300.992,215.975 303.399 C 216.177 304.103,216.591 305.583,216.895 306.689 L 217.446 308.699 216.698 309.306 C 215.108 310.594,213.092 309.886,211.165 307.363 C 210.569 306.582,209.701 305.740,209.235 305.491 C 206.874 304.227,210.797 296.360,215.735 292.458 C 218.750 290.076,218.874 289.876,218.874 287.395 C 218.874 283.800,217.616 283.875,250.796 285.503 C 257.669 285.841,258.605 285.722,259.190 284.437 C 260.139 282.355,257.673 279.205,253.494 277.161 L 251.388 276.130 239.017 276.110 C 232.213 276.099,226.289 275.976,225.852 275.837 C 224.697 275.467,223.376 274.116,223.146 273.069 C 222.691 270.997,218.400 270.796,216.250 272.747 C 214.520 274.316,214.025 274.475,212.078 274.085 C 210.335 273.736,197.503 272.665,195.765 272.723 C 194.057 272.780,193.498 273.533,193.493 275.783 C 193.471 285.848,186.027 298.147,176.459 303.927 C 154.395 317.254,127.412 302.110,126.728 276.017 C 126.618 271.811,126.451 271.518,124.032 271.285 C 121.838 271.075,121.330 270.334,121.645 267.809 C 122.184 263.491,123.261 262.180,126.004 262.499 C 128.270 262.762,128.573 262.550,129.782 259.856 C 136.967 243.841,155.249 236.038,172.872 241.464 C 180.398 243.781,188.166 252.020,191.800 261.538 C 192.528 263.444,192.972 263.574,195.668 262.666 C 197.386 262.087,198.380 262.014,204.614 262.014 L 211.627 262.014 212.554 261.087 C 213.229 260.413,213.481 259.855,213.481 259.041 C 213.481 258.425,213.636 257.202,213.825 256.322 C 214.306 254.075,213.579 252.011,211.494 249.709 C 210.618 248.742,209.421 246.911,208.834 245.641 C 208.248 244.371,207.082 242.432,206.245 241.333 C 205.407 240.233,204.239 238.620,203.648 237.748 C 203.057 236.875,202.039 235.519,201.385 234.734 C 200.731 233.949,199.068 231.951,197.689 230.293 C 193.682 225.477,176.923 206.705,172.864 202.488 C 168.990 198.462,166.501 195.577,162.093 190.001 C 160.648 188.173,158.379 185.533,157.052 184.135 C 152.920 179.783,148.867 174.947,148.128 173.486 C 147.738 172.716,146.866 171.480,146.188 170.741 C 145.069 169.518,144.358 168.291,143.885 166.767 C 143.790 166.459,142.816 165.674,141.721 165.023 C 139.291 163.577,133.147 157.438,131.012 154.322 C 130.175 153.101,128.250 150.745,126.736 149.088 C 125.221 147.431,123.385 145.108,122.657 143.926 C 121.928 142.744,120.589 140.674,119.680 139.326 C 118.772 137.978,117.666 136.203,117.223 135.381 C 116.672 134.359,115.827 133.486,114.548 132.617 C 112.433 131.181,106.514 125.013,103.982 121.606 C 102.040 118.992,97.576 114.265,95.405 112.522 C 94.531 111.821,93.350 110.375,92.555 109.033 C 91.808 107.772,89.934 105.314,88.389 103.569 C 86.845 101.824,83.861 98.398,81.759 95.956 C 74.526 87.553,71.527 84.343,70.164 83.544 C 68.977 82.849,65.979 79.360,65.979 78.675 C 65.979 78.542,66.564 78.356,67.279 78.260 C 68.658 78.075,69.959 77.100,70.295 76.001 C 70.862 74.146,71.330 74.254,73.520 76.741 M306.399 196.407 C 306.016 197.162,305.007 198.779,304.156 200.002 C 302.965 201.713,302.537 202.661,302.296 204.125 C 301.949 206.234,301.846 217.431,302.156 219.378 C 302.574 221.999,301.628 236.320,301.038 236.320 C 300.210 236.320,300.006 233.223,300.217 223.876 C 300.336 218.595,300.412 213.275,300.386 212.054 C 300.179 202.443,300.964 199.638,304.996 195.574 C 307.152 193.401,307.746 193.754,306.399 196.407 M295.301 198.435 C 294.904 198.858,294.520 199.146,294.448 199.074 C 294.269 198.895,295.019 197.514,295.448 197.235 C 296.123 196.794,296.015 197.675,295.301 198.435 M292.256 203.199 C 290.370 206.228,290.209 206.626,290.403 207.772 C 291.287 212.988,291.523 215.099,291.355 216.256 C 291.246 217.007,291.370 218.762,291.637 220.221 C 292.188 223.243,292.908 234.358,292.604 235.151 C 291.799 237.249,291.518 235.187,290.513 219.826 C 289.648 206.601,289.743 205.245,291.731 202.545 C 293.127 200.650,293.530 201.152,292.256 203.199 M301.194 241.742 C 301.417 243.366,301.180 247.033,300.775 248.216 C 300.518 248.967,300.125 242.658,300.335 241.158 C 300.548 239.637,300.941 239.904,301.194 241.742 M154.254 243.617 C 146.911 245.541,138.937 251.135,138.937 254.361 C 138.937 255.327,140.435 256.884,142.230 257.786 C 143.123 258.234,144.935 259.354,146.256 260.275 C 147.577 261.196,149.647 262.456,150.856 263.075 C 152.064 263.695,153.481 264.493,154.005 264.850 C 157.634 267.326,159.504 264.115,160.365 253.925 C 160.483 252.530,160.778 250.415,161.020 249.226 C 162.208 243.383,160.512 241.976,154.254 243.617 M171.073 245.833 C 169.918 246.310,169.414 247.460,168.275 252.223 C 167.675 254.730,166.823 258.279,166.380 260.111 C 164.603 267.464,164.969 267.657,176.854 265.648 C 186.600 264.001,187.156 263.763,187.150 261.245 C 187.136 255.521,175.238 244.114,171.073 245.833 M131.599 273.476 C 129.827 275.248,132.735 286.405,135.499 288.438 C 136.989 289.533,138.098 289.028,142.151 285.403 C 144.148 283.618,146.606 281.454,147.614 280.594 C 150.621 278.030,150.900 276.629,148.511 276.102 C 148.043 275.999,147.232 275.787,146.709 275.632 C 145.635 275.313,133.120 272.799,132.607 272.799 C 132.425 272.799,131.972 273.104,131.599 273.476 M181.285 274.722 C 178.668 275.227,175.028 275.862,173.196 276.133 C 165.966 277.202,165.924 277.325,170.149 285.012 C 171.587 287.629,173.227 290.769,173.792 291.990 C 175.193 295.017,176.134 295.956,177.766 295.956 C 182.069 295.956,190.868 280.529,189.388 275.580 C 188.752 273.452,188.182 273.392,181.285 274.722 M264.374 275.734 C 263.214 276.801,261.970 282.735,262.480 284.768 C 263.022 286.928,270.285 287.331,275.337 285.481 C 279.377 284.002,279.383 283.617,275.396 281.654 C 273.093 280.519,271.904 279.671,270.004 277.803 C 266.459 274.321,266.066 274.176,264.374 275.734 M156.853 281.172 C 156.326 281.402,155.473 282.145,154.957 282.825 C 154.441 283.504,152.531 285.630,150.713 287.550 C 144.918 293.665,143.695 295.207,143.695 296.397 C 143.695 300.482,155.788 304.369,163.997 302.922 C 167.337 302.333,168.470 300.558,167.189 297.921 C 166.794 297.107,166.147 295.369,165.750 294.058 C 162.368 282.865,160.194 279.716,156.853 281.172 " stroke="none" fill="#ffff00" fill-rule="evenodd"></path><path id="path1" d="M11.769 10.713 L 10.715 11.593 11.386 13.844 C 12.577 17.843,20.597 28.563,29.976 38.691 C 31.197 40.010,34.695 43.931,37.748 47.403 C 40.801 50.876,44.280 54.799,45.480 56.121 C 46.679 57.443,49.047 60.239,50.743 62.334 C 53.598 65.860,57.125 69.469,57.718 69.469 C 57.856 69.469,58.665 69.089,59.516 68.626 C 63.225 66.604,63.392 65.588,60.550 62.331 C 59.484 61.110,57.184 58.398,55.440 56.305 C 53.695 54.211,51.659 51.927,50.915 51.229 C 49.583 49.981,41.402 40.822,37.456 36.162 C 32.785 30.645,23.949 21.514,21.628 19.805 C 17.334 16.643,17.234 16.412,17.971 11.386 C 18.243 9.535,13.763 9.049,11.769 10.713 M62.381 69.097 C 61.169 70.436,62.354 72.641,64.285 72.641 C 66.185 72.641,67.111 70.261,65.667 69.091 C 64.747 68.347,63.057 68.350,62.381 69.097 M70.800 74.959 C 70.634 75.167,70.407 75.636,70.295 76.001 C 69.959 77.100,68.658 78.075,67.279 78.260 C 66.564 78.356,65.979 78.542,65.979 78.675 C 65.979 79.360,68.977 82.849,70.164 83.544 C 71.527 84.343,74.526 87.553,81.759 95.956 C 83.861 98.398,86.845 101.824,88.389 103.569 C 89.934 105.314,91.808 107.772,92.555 109.033 C 93.350 110.375,94.531 111.821,95.405 112.522 C 97.576 114.265,102.040 118.992,103.982 121.606 C 106.514 125.013,112.433 131.181,114.548 132.617 C 115.827 133.486,116.672 134.359,117.223 135.381 C 117.666 136.203,118.772 137.978,119.680 139.326 C 120.589 140.674,121.928 142.744,122.657 143.926 C 123.385 145.108,125.221 147.431,126.736 149.088 C 128.250 150.745,130.175 153.101,131.012 154.322 C 133.147 157.438,139.291 163.577,141.721 165.023 C 142.816 165.674,143.790 166.459,143.885 166.767 C 144.358 168.291,145.069 169.518,146.188 170.741 C 146.866 171.480,147.738 172.716,148.128 173.486 C 148.867 174.947,152.920 179.783,157.052 184.135 C 158.379 185.533,160.648 188.173,162.093 190.001 C 166.501 195.577,168.990 198.462,172.864 202.488 C 176.923 206.705,193.682 225.477,197.689 230.293 C 199.068 231.951,200.731 233.949,201.385 234.734 C 202.039 235.519,203.057 236.875,203.648 237.748 C 204.239 238.620,205.407 240.233,206.245 241.333 C 207.082 242.432,208.248 244.371,208.834 245.641 C 209.421 246.911,210.618 248.742,211.494 249.709 C 213.579 252.011,214.306 254.075,213.825 256.322 C 213.636 257.202,213.481 258.425,213.481 259.041 C 213.481 259.855,213.229 260.413,212.554 261.087 L 211.627 262.014 204.614 262.014 C 198.380 262.014,197.386 262.087,195.668 262.666 C 192.972 263.574,192.528 263.444,191.800 261.538 C 188.166 252.020,180.398 243.781,172.872 241.464 C 155.249 236.038,136.967 243.841,129.782 259.856 C 128.573 262.550,128.270 262.762,126.004 262.499 C 123.261 262.180,122.184 263.491,121.645 267.809 C 121.330 270.334,121.838 271.075,124.032 271.285 C 126.451 271.518,126.618 271.811,126.728 276.017 C 127.412 302.110,154.395 317.254,176.459 303.927 C 186.027 298.147,193.471 285.848,193.493 275.783 C 193.498 273.533,194.057 272.780,195.765 272.723 C 197.503 272.665,210.335 273.736,212.078 274.085 C 214.025 274.475,214.520 274.316,216.250 272.747 C 218.400 270.796,222.691 270.997,223.146 273.069 C 223.376 274.116,224.697 275.467,225.852 275.837 C 226.289 275.976,232.213 276.099,239.017 276.110 L 251.388 276.130 253.494 277.161 C 257.673 279.205,260.139 282.355,259.190 284.437 C 258.605 285.722,257.669 285.841,250.796 285.503 C 217.616 283.875,218.874 283.800,218.874 287.395 C 218.874 289.876,218.750 290.076,215.735 292.458 C 210.797 296.360,206.874 304.227,209.235 305.491 C 209.701 305.740,210.569 306.582,211.165 307.363 C 213.092 309.886,215.108 310.594,216.698 309.306 L 217.446 308.699 216.895 306.689 C 216.591 305.583,216.177 304.103,215.975 303.399 C 215.283 300.992,217.628 297.934,222.123 295.379 L 224.533 294.010 225.997 294.507 C 228.056 295.206,228.735 295.136,230.325 294.058 C 233.930 291.615,235.943 294.021,240.908 306.703 C 243.146 312.421,244.498 314.463,246.276 314.812 C 251.572 315.852,270.231 316.365,273.937 315.572 C 275.142 315.315,275.727 315.322,276.250 315.602 C 277.138 316.077,285.053 316.427,287.556 316.102 C 288.599 315.966,289.274 315.791,289.056 315.712 C 288.838 315.634,288.660 315.376,288.660 315.138 C 288.660 312.690,284.746 310.966,282.200 312.294 C 281.700 312.554,280.701 312.771,279.980 312.775 C 279.258 312.779,278.106 312.913,277.420 313.072 C 275.448 313.529,273.517 311.536,274.376 309.930 C 275.135 308.512,279.117 308.712,280.583 310.242 C 281.784 311.496,282.062 311.446,284.189 309.596 C 286.261 307.793,286.621 307.728,288.818 308.761 C 291.797 310.160,292.776 312.243,291.218 313.866 C 289.245 315.920,291.900 317.463,295.962 316.624 C 297.172 316.374,298.061 316.359,298.818 316.576 C 300.918 317.179,302.165 316.985,303.065 315.915 C 304.525 314.180,304.207 313.698,302.260 314.691 C 301.137 315.264,300.779 315.304,299.402 315.009 C 298.536 314.823,297.429 314.671,296.941 314.671 C 295.772 314.671,295.263 314.039,294.123 311.169 C 293.601 309.854,292.585 307.868,291.866 306.755 C 290.361 304.427,289.158 300.789,289.451 299.455 C 289.724 298.208,290.273 297.803,293.894 296.175 C 295.638 295.391,298.132 294.235,299.436 293.608 C 306.002 290.445,309.573 294.146,307.674 302.144 C 306.698 306.251,306.947 306.670,308.621 303.738 C 311.370 298.920,310.260 294.621,305.635 292.182 C 303.560 291.087,302.154 291.288,297.942 293.279 C 288.028 297.967,287.876 297.953,286.271 292.212 C 285.766 290.407,285.487 290.006,283.379 288.064 C 280.823 285.708,280.559 284.995,281.790 283.764 C 283.396 282.158,315.005 281.918,316.202 283.503 C 316.434 283.809,316.918 284.631,317.279 285.329 C 317.639 286.027,318.698 287.722,319.633 289.096 C 321.600 291.989,321.621 292.102,320.452 293.486 C 318.918 295.303,318.779 295.546,318.982 296.074 C 319.253 296.780,320.444 296.722,321.419 295.956 C 322.846 294.833,323.427 295.105,326.750 298.456 C 335.654 307.436,351.445 312.692,361.641 310.070 C 362.899 309.747,364.352 311.144,364.970 313.271 C 365.573 315.345,366.230 315.615,365.866 313.640 C 365.258 310.333,365.858 309.464,369.633 308.177 C 379.775 304.721,387.478 296.954,391.649 285.978 C 392.706 283.195,393.814 281.681,394.793 281.681 C 395.163 281.681,395.111 281.421,394.546 280.439 L 393.831 279.196 394.437 275.918 C 395.407 270.683,395.430 265.946,394.502 262.490 C 394.081 260.920,393.300 257.978,392.768 255.952 C 391.368 250.632,388.947 245.786,386.002 242.416 C 384.622 240.837,384.783 239.929,386.756 238.148 C 389.113 236.022,387.632 234.705,385.091 236.668 C 383.085 238.218,383.164 238.242,380.117 235.142 C 375.487 230.432,368.720 226.456,361.914 224.450 C 360.595 224.061,359.335 223.631,359.115 223.495 C 358.895 223.359,357.048 223.190,355.012 223.119 C 347.481 222.857,347.370 222.816,346.740 220.001 C 346.237 217.753,345.219 217.051,344.095 218.175 C 343.426 218.844,343.422 218.894,343.936 220.500 C 344.565 222.467,344.303 223.170,342.826 223.481 C 331.540 225.862,322.233 233.151,316.538 244.070 C 314.672 247.648,314.315 248.033,312.847 248.047 C 311.500 248.060,311.545 248.387,313.003 249.167 C 314.456 249.945,314.706 250.794,313.606 251.212 C 312.238 251.732,302.935 251.772,301.728 251.263 C 300.846 250.891,300.478 250.888,299.397 251.245 C 297.595 251.840,295.334 251.779,294.313 251.109 C 293.514 250.585,293.413 250.583,292.650 251.084 C 291.597 251.773,291.011 251.522,290.431 250.133 C 289.867 248.783,289.084 248.675,288.025 249.802 C 287.079 250.810,285.993 250.810,284.795 249.802 C 283.471 248.687,282.316 248.920,282.316 250.302 C 282.316 251.196,281.478 251.603,279.070 251.882 C 276.443 252.185,273.459 253.275,270.848 254.883 C 269.837 255.506,268.637 255.987,268.095 255.987 C 267.567 255.987,266.911 256.211,266.637 256.485 C 266.136 256.986,266.021 257.352,265.663 259.573 C 265.338 261.587,264.274 261.600,263.947 259.594 C 263.666 257.864,262.956 257.581,261.561 258.645 C 259.811 259.979,258.412 260.093,257.701 258.958 C 257.387 258.458,257.076 257.978,257.009 257.891 C 256.941 257.803,256.050 257.726,255.029 257.720 C 252.882 257.705,252.112 257.198,251.191 255.194 C 249.573 251.670,251.494 250.380,253.814 253.435 C 255.334 255.437,256.451 256.022,258.049 255.655 C 258.747 255.494,259.686 255.293,260.136 255.207 C 260.613 255.116,261.109 254.711,261.326 254.234 C 261.531 253.784,262.195 253.209,262.802 252.955 C 263.570 252.635,263.965 252.229,264.100 251.624 C 264.207 251.145,264.369 250.468,264.461 250.119 C 264.553 249.770,265.324 248.834,266.176 248.038 C 267.550 246.754,267.724 246.443,267.724 245.267 C 267.724 243.966,267.758 243.926,269.637 242.977 C 273.585 240.984,274.553 239.539,278.349 229.976 C 279.353 227.446,280.448 224.922,280.782 224.367 C 281.116 223.812,281.604 222.328,281.866 221.069 C 282.129 219.810,282.494 218.500,282.677 218.158 C 282.860 217.816,283.141 215.446,283.301 212.892 C 284.438 194.775,284.352 195.644,285.151 194.177 C 286.035 192.556,285.845 191.567,284.452 190.530 C 283.534 189.847,237.834 189.440,235.168 190.092 C 232.355 190.779,231.765 192.752,233.545 195.522 L 234.576 197.127 234.792 202.687 C 235.159 212.118,235.068 211.858,240.099 217.750 C 242.358 220.395,242.368 221.577,240.142 223.175 C 237.536 225.048,237.880 227.315,240.920 228.295 C 242.208 228.710,242.241 229.307,241.076 231.129 L 240.089 232.672 240.146 238.858 C 240.177 242.260,240.349 247.232,240.527 249.907 C 240.919 255.783,240.850 255.929,237.510 256.274 C 234.325 256.604,233.799 256.348,231.222 253.206 C 225.018 245.643,220.309 240.463,218.457 239.164 C 214.104 236.109,210.364 232.251,197.304 217.345 C 188.490 207.285,183.565 201.493,181.205 198.414 C 179.868 196.669,176.819 193.172,174.430 190.642 C 172.041 188.113,168.709 184.401,167.026 182.395 C 165.343 180.389,162.907 177.534,161.613 176.051 C 160.319 174.568,157.988 171.737,156.433 169.760 C 154.877 167.783,152.659 165.381,151.505 164.423 C 148.679 162.077,148.438 159.900,150.902 158.977 C 151.387 158.796,152.559 157.915,153.506 157.019 C 154.453 156.123,155.666 155.166,156.202 154.892 C 156.738 154.618,157.720 153.908,158.383 153.313 C 159.446 152.360,159.766 152.243,161.079 152.325 C 162.770 152.431,163.331 151.555,161.693 151.366 C 160.831 151.267,159.556 149.477,159.556 148.368 C 159.556 146.261,157.839 146.737,157.510 148.935 C 157.292 150.389,154.217 154.481,153.342 154.481 C 153.131 154.481,152.013 155.337,150.858 156.384 C 147.199 159.700,144.854 158.537,138.780 150.396 C 132.419 141.872,125.363 134.532,121.973 132.912 C 119.144 131.561,118.493 130.966,117.211 128.563 C 116.026 126.342,110.838 120.159,105.275 114.339 C 102.766 111.714,100.081 108.717,99.307 107.678 C 98.534 106.639,96.728 104.576,95.294 103.093 C 93.861 101.610,90.639 98.026,88.136 95.130 C 85.633 92.233,82.033 88.109,80.138 85.966 C 77.942 83.484,76.413 81.440,75.924 80.335 C 74.660 77.476,71.465 74.126,70.800 74.959 M304.996 195.574 C 300.964 199.638,300.179 202.443,300.386 212.054 C 300.412 213.275,300.336 218.595,300.217 223.876 C 300.006 233.223,300.210 236.320,301.038 236.320 C 301.628 236.320,302.574 221.999,302.156 219.378 C 301.846 217.431,301.949 206.234,302.296 204.125 C 302.537 202.661,302.965 201.713,304.156 200.002 C 307.690 194.925,308.175 192.370,304.996 195.574 M295.448 197.235 C 295.019 197.514,294.269 198.895,294.448 199.074 C 294.672 199.298,296.030 197.684,295.910 197.337 C 295.848 197.155,295.640 197.109,295.448 197.235 M291.731 202.545 C 289.743 205.245,289.648 206.601,290.513 219.826 C 291.518 235.187,291.799 237.249,292.604 235.151 C 292.908 234.358,292.188 223.243,291.637 220.221 C 291.370 218.762,291.246 217.007,291.355 216.256 C 291.523 215.099,291.287 212.988,290.403 207.772 C 290.209 206.626,290.370 206.228,292.256 203.199 C 293.530 201.152,293.127 200.650,291.731 202.545 M300.335 241.158 C 300.125 242.658,300.518 248.967,300.775 248.216 C 300.894 247.867,301.087 246.631,301.204 245.470 C 301.542 242.102,300.752 238.183,300.335 241.158 M160.483 243.803 C 161.623 244.762,161.722 245.769,161.020 249.226 C 160.778 250.415,160.483 252.530,160.365 253.925 C 159.504 264.115,157.634 267.326,154.005 264.850 C 153.481 264.493,152.064 263.695,150.856 263.075 C 149.647 262.456,147.577 261.196,146.256 260.275 C 144.935 259.354,143.123 258.234,142.230 257.786 C 140.435 256.884,138.937 255.327,138.937 254.361 C 138.937 249.179,156.591 240.528,160.483 243.803 M175.625 246.960 C 180.843 249.495,187.141 257.302,187.150 261.245 C 187.156 263.763,186.600 264.001,176.854 265.648 C 164.969 267.657,164.603 267.464,166.380 260.111 C 166.823 258.279,167.675 254.730,168.275 252.223 C 170.004 244.994,170.641 244.538,175.625 246.960 M139.348 274.075 C 142.873 274.776,146.186 275.477,146.709 275.632 C 147.232 275.787,148.043 275.999,148.511 276.102 C 150.900 276.629,150.621 278.030,147.614 280.594 C 146.606 281.454,144.148 283.618,142.151 285.403 C 138.098 289.028,136.989 289.533,135.499 288.438 C 132.735 286.405,129.827 275.248,131.599 273.476 C 132.449 272.626,131.824 272.578,139.348 274.075 M188.432 274.073 C 191.584 275.760,187.381 287.469,181.460 293.497 C 177.746 297.278,176.089 296.953,173.792 291.990 C 173.227 290.769,171.587 287.629,170.149 285.012 C 165.924 277.325,165.966 277.202,173.196 276.133 C 175.028 275.862,178.668 275.227,181.285 274.722 C 186.606 273.696,187.564 273.609,188.432 274.073 M266.873 275.055 C 267.254 275.249,268.663 276.486,270.004 277.803 C 271.904 279.671,273.093 280.519,275.396 281.654 C 279.383 283.617,279.377 284.002,275.337 285.481 C 272.471 286.531,272.135 286.583,268.476 286.540 C 262.315 286.469,262.028 286.161,262.778 280.412 C 263.376 275.826,264.779 273.990,266.873 275.055 M159.700 281.179 C 161.275 281.837,163.468 286.504,165.750 294.058 C 166.147 295.369,166.794 297.107,167.189 297.921 C 170.065 303.840,157.291 305.327,147.206 300.248 C 141.870 297.562,142.135 296.602,150.713 287.550 C 152.531 285.630,154.441 283.504,154.957 282.825 C 156.403 280.920,157.866 280.412,159.700 281.179 M398.625 282.528 C 398.390 282.763,399.308 283.902,399.732 283.902 C 399.879 283.902,400.000 283.545,400.000 283.109 C 400.000 282.340,399.165 281.987,398.625 282.528 " stroke="none" fill="#ffffff" fill-rule="evenodd"></path></g></svg>